<svg width="144" height="29" viewBox="0 0 144 29" fill="none" xmlns="http://www.w3.org/2000/svg">
<g filter="url(#filter0_d_1_3)">
<path d="M8.79316 1.70514C10.6989 1.70514 12.2152 2.09457 13.342 2.87343C14.4689 3.63571 15.0323 4.77914 15.0323 6.30371C15.0323 7.43057 14.7506 8.37514 14.1872 9.13743C13.6403 9.88314 12.8863 10.4466 11.9252 10.8277C10.9806 11.1923 9.89516 11.3746 8.66887 11.3746L8.09716 9.43571C9.60516 9.43571 10.9392 9.64286 12.0992 10.0571C13.2757 10.4714 14.2037 11.068 14.8832 11.8469C15.5626 12.6091 15.9023 13.5289 15.9023 14.606C15.9023 15.6003 15.72 16.4454 15.3554 17.1414C15.0074 17.8209 14.5269 18.376 13.9137 18.8069C13.3172 19.2211 12.6377 19.5277 11.8754 19.7266C11.1132 19.9089 10.326 20 9.51401 20H3.42401V1.70514H8.79316ZM9.21573 9.18714C9.9283 9.18714 10.4503 8.97171 10.7817 8.54086C11.1297 8.11 11.3037 7.62114 11.3037 7.07428C11.3037 6.44457 11.0883 5.97228 10.6574 5.65743C10.2432 5.34257 9.67973 5.18514 8.96716 5.18514H7.0283V9.18714H9.21573ZM9.34001 16.6443C10.1354 16.6443 10.8066 16.4869 11.3534 16.172C11.9003 15.8406 12.1737 15.3186 12.1737 14.606C12.1737 14.0757 12.0246 13.678 11.7263 13.4129C11.428 13.1311 11.0386 12.9406 10.558 12.8411C10.094 12.7251 9.60516 12.6671 9.09144 12.6671H7.0283V16.6443H9.34001ZM20.5869 14.432C20.5869 13.3217 20.8438 12.3274 21.3575 11.4491C21.8878 10.5709 22.6252 9.88314 23.5698 9.386C24.5143 8.87228 25.5998 8.61543 26.826 8.61543C28.0689 8.61543 29.146 8.87228 30.0575 9.386C30.9689 9.88314 31.6649 10.5709 32.1455 11.4491C32.6426 12.3274 32.8912 13.3217 32.8912 14.432C32.8912 15.5423 32.6426 16.5449 32.1455 17.4397C31.6649 18.318 30.9689 19.014 30.0575 19.5277C29.146 20.0414 28.0523 20.2983 26.7763 20.2983C25.5832 20.2983 24.5143 20.0663 23.5698 19.6023C22.6418 19.1383 21.9126 18.4671 21.3823 17.5889C20.852 16.7106 20.5869 15.6583 20.5869 14.432ZM24.0918 14.4569C24.0918 15.0203 24.2078 15.534 24.4398 15.998C24.6718 16.4454 24.9866 16.8017 25.3843 17.0669C25.782 17.332 26.2295 17.4646 26.7266 17.4646C27.5386 17.4646 28.1849 17.1829 28.6655 16.6194C29.146 16.0394 29.3863 15.3186 29.3863 14.4569C29.3863 13.5951 29.146 12.8826 28.6655 12.3191C28.1849 11.7391 27.5386 11.4491 26.7266 11.4491C26.2295 11.4491 25.782 11.5817 25.3843 11.8469C24.9866 12.112 24.6718 12.4683 24.4398 12.9157C24.2078 13.3631 24.0918 13.8769 24.0918 14.4569ZM37.2732 14.432C37.2732 13.3217 37.5301 12.3274 38.0438 11.4491C38.5741 10.5709 39.3115 9.88314 40.2561 9.386C41.2007 8.87228 42.2861 8.61543 43.5124 8.61543C44.7552 8.61543 45.8324 8.87228 46.7438 9.386C47.6552 9.88314 48.3512 10.5709 48.8318 11.4491C49.3289 12.3274 49.5775 13.3217 49.5775 14.432C49.5775 15.5423 49.3289 16.5449 48.8318 17.4397C48.3512 18.318 47.6552 19.014 46.7438 19.5277C45.8324 20.0414 44.7387 20.2983 43.4627 20.2983C42.2695 20.2983 41.2007 20.0663 40.2561 19.6023C39.3281 19.1383 38.5989 18.4671 38.0687 17.5889C37.5384 16.7106 37.2732 15.6583 37.2732 14.432ZM40.7781 14.4569C40.7781 15.0203 40.8941 15.534 41.1261 15.998C41.3581 16.4454 41.6729 16.8017 42.0707 17.0669C42.4684 17.332 42.9158 17.4646 43.4129 17.4646C44.2249 17.4646 44.8712 17.1829 45.3518 16.6194C45.8324 16.0394 46.0727 15.3186 46.0727 14.4569C46.0727 13.5951 45.8324 12.8826 45.3518 12.3191C44.8712 11.7391 44.2249 11.4491 43.4129 11.4491C42.9158 11.4491 42.4684 11.5817 42.0707 11.8469C41.6729 12.112 41.3581 12.4683 41.1261 12.9157C40.8941 13.3631 40.7781 13.8769 40.7781 14.4569ZM54.8047 20V0.387713H58.2847V20H54.8047ZM61.0438 12.6174L65.9656 20H61.9138L58.757 14.606L61.0438 12.6174ZM57.2407 16.9923L56.8927 13.6863L63.455 8.864L65.5678 10.7283L57.2407 16.9923Z" fill="black"/>
<path d="M81.2005 6.12971C80.5045 5.74857 79.7919 5.43371 79.0627 5.18514C78.3502 4.93657 77.679 4.81229 77.0493 4.81229C76.2705 4.81229 75.6573 4.96971 75.2099 5.28457C74.7625 5.59943 74.5387 6.07171 74.5387 6.70143C74.5387 7.13229 74.7045 7.52171 75.0359 7.86971C75.3839 8.20114 75.823 8.49943 76.3533 8.76457C76.9002 9.02971 77.4636 9.27 78.0436 9.48543C78.7562 9.75057 79.4439 10.0903 80.1067 10.5046C80.7696 10.9023 81.3165 11.4574 81.7473 12.17C82.1782 12.866 82.3936 13.794 82.3936 14.954C82.3936 15.882 82.1533 16.7437 81.6727 17.5391C81.1922 18.3346 80.4879 18.9809 79.5599 19.478C78.6319 19.9586 77.4885 20.1989 76.1296 20.1989C75.0856 20.1989 74.0167 20.0414 72.923 19.7266C71.8459 19.4117 70.8267 18.9146 69.8656 18.2351L71.4565 15.4263C72.0862 15.8903 72.807 16.2714 73.619 16.5697C74.431 16.868 75.1602 17.0171 75.8065 17.0171C76.2373 17.0171 76.6682 16.9591 77.099 16.8431C77.5465 16.7106 77.911 16.4951 78.1927 16.1969C78.491 15.8986 78.6402 15.4843 78.6402 14.954C78.6402 14.5894 78.5159 14.258 78.2673 13.9597C78.0353 13.6614 77.7122 13.388 77.2979 13.1394C76.9002 12.8909 76.461 12.6754 75.9805 12.4931C75.417 12.2777 74.837 12.0291 74.2405 11.7474C73.6439 11.4657 73.0805 11.126 72.5502 10.7283C72.0365 10.314 71.6139 9.80857 71.2825 9.212C70.9676 8.59886 70.8102 7.85314 70.8102 6.97486C70.8102 5.91429 71.0422 4.99457 71.5062 4.21571C71.9867 3.43686 72.6579 2.82371 73.5196 2.37628C74.3813 1.91228 75.3756 1.65543 76.5025 1.60571C77.9773 1.60571 79.1705 1.77971 80.0819 2.12771C81.0099 2.47571 81.8385 2.89 82.5676 3.37057L81.2005 6.12971ZM88.8567 4.36486H92.3367V9.08771H94.9715V11.7971H92.3367V20H88.8567V11.7971H87.1664V9.08771H88.8567V4.36486ZM99.2607 14.432C99.2607 13.3217 99.5176 12.3274 100.031 11.4491C100.562 10.5709 101.299 9.88314 102.244 9.386C103.188 8.87228 104.274 8.61543 105.5 8.61543C106.743 8.61543 107.82 8.87228 108.731 9.386C109.643 9.88314 110.339 10.5709 110.819 11.4491C111.316 12.3274 111.565 13.3217 111.565 14.432C111.565 15.5423 111.316 16.5449 110.819 17.4397C110.339 18.318 109.643 19.014 108.731 19.5277C107.82 20.0414 106.726 20.2983 105.45 20.2983C104.257 20.2983 103.188 20.0663 102.244 19.6023C101.316 19.1383 100.586 18.4671 100.056 17.5889C99.5259 16.7106 99.2607 15.6583 99.2607 14.432ZM102.766 14.4569C102.766 15.0203 102.882 15.534 103.114 15.998C103.346 16.4454 103.66 16.8017 104.058 17.0669C104.456 17.332 104.903 17.4646 105.4 17.4646C106.212 17.4646 106.859 17.1829 107.339 16.6194C107.82 16.0394 108.06 15.3186 108.06 14.4569C108.06 13.5951 107.82 12.8826 107.339 12.3191C106.859 11.7391 106.212 11.4491 105.4 11.4491C104.903 11.4491 104.456 11.5817 104.058 11.8469C103.66 12.112 103.346 12.4683 103.114 12.9157C102.882 13.3631 102.766 13.8769 102.766 14.4569ZM119.924 9.13743L120.247 12.1203L120.173 11.6729C120.488 11.0266 120.918 10.4797 121.465 10.0323C122.012 9.56828 122.551 9.212 123.081 8.96343C123.628 8.71486 124.042 8.59057 124.324 8.59057L124.15 12.0706C123.338 11.9711 122.642 12.1037 122.062 12.4683C121.482 12.8329 121.034 13.3134 120.72 13.91C120.405 14.5066 120.247 15.1197 120.247 15.7494V20H116.792V9.13743H119.924ZM134.332 20.2983C133.006 20.2983 131.879 20.0497 130.951 19.5526C130.04 19.0554 129.344 18.3677 128.863 17.4894C128.383 16.6111 128.143 15.6003 128.143 14.4569C128.143 13.3631 128.424 12.3771 128.988 11.4989C129.551 10.6206 130.305 9.92457 131.25 9.41086C132.194 8.88057 133.247 8.61543 134.407 8.61543C135.964 8.61543 137.24 9.07114 138.235 9.98257C139.245 10.8774 139.9 12.1783 140.198 13.8851L131.747 16.5697L130.976 14.6806L137.091 12.6174L136.37 12.9406C136.238 12.5097 135.997 12.1369 135.649 11.822C135.318 11.4906 134.813 11.3249 134.133 11.3249C133.354 11.3249 132.733 11.59 132.269 12.1203C131.805 12.6506 131.573 13.3631 131.573 14.258C131.573 15.2689 131.846 16.0394 132.393 16.5697C132.94 17.0834 133.611 17.3403 134.407 17.3403C134.788 17.3403 135.152 17.274 135.5 17.1414C135.865 17.0089 136.221 16.8349 136.569 16.6194L138.11 19.2046C137.53 19.536 136.901 19.8011 136.221 20C135.558 20.1989 134.929 20.2983 134.332 20.2983Z" fill="#0054F7"/>
</g>
<defs>
<filter id="filter0_d_1_3" x="0.424011" y="0.387711" width="142.774" height="27.9106" filterUnits="userSpaceOnUse" color-interpolation-filters="sRGB">
<feFlood flood-opacity="0" result="BackgroundImageFix"/>
<feColorMatrix in="SourceAlpha" type="matrix" values="0 0 0 0 0 0 0 0 0 0 0 0 0 0 0 0 0 0 127 0" result="hardAlpha"/>
<feOffset dy="5"/>
<feGaussianBlur stdDeviation="1.5"/>
<feComposite in2="hardAlpha" operator="out"/>
<feColorMatrix type="matrix" values="0 0 0 0 0 0 0 0 0 0 0 0 0 0 0 0 0 0 0.29 0"/>
<feBlend mode="normal" in2="BackgroundImageFix" result="effect1_dropShadow_1_3"/>
<feBlend mode="normal" in="SourceGraphic" in2="effect1_dropShadow_1_3" result="shape"/>
</filter>
</defs>
</svg>
